Coordinates
version=1
nRows=39
nColumns=34
inDegrees=no

Units are S.I. units (second, meters, Newtons, ...)
If the header above contains a line with 'inDegrees', this indicates whether rotational values are in degrees (yes) or radians (no).

endheader
time	pelvis_tilt	pelvis_list	pelvis_rotation	pelvis_tx	pelvis_ty	pelvis_tz	hip_flexion_r	hip_adduction_r	hip_rotation_r	knee_angle_r	ankle_angle_r	subtalar_angle_r	mtp_angle_r	hip_flexion_l	hip_adduction_l	hip_rotation_l	knee_angle_l	ankle_angle_l	subtalar_angle_l	mtp_angle_l	lumbar_extension	lumbar_bending	lumbar_rotation	arm_flex_r	arm_add_r	arm_rot_r	elbow_flex_r	pro_sup_r	arm_flex_l	arm_add_l	arm_rot_l	elbow_flex_l	pro_sup_l
0.64	-0.309652	0.0233362	-0.0408255	-1.07552	1.19203	-0.575032	0.6043	-0.0392457	0.0253463	0.811534	0.631908	0.10846	0	0.611041	-0.0421771	-0.0694731	0.837648	0.591928	0.0662393	0	-0.197681	0.00771588	-0.0600728	0.301106	-0.198807	0.0962003	0.679838	1.98566	0.376343	-0.161479	0.082782	0.413529	2.09
0.65	-0.313521	0.0225231	-0.0393867	-1.07364	1.18754	-0.57524	0.618998	-0.0388138	0.0274014	0.837943	0.638713	0.091403	0	0.629682	-0.0459719	-0.069808	0.870123	0.592711	0.0508879	0	-0.202942	0.00922157	-0.0616659	0.343453	-0.199104	0.105622	0.68643	1.98177	0.423493	-0.162642	0.0972853	0.429419	2.09
0.66	-0.316929	0.0229055	-0.0379853	-1.07157	1.18304	-0.575461	0.633288	-0.0401877	0.0290996	0.864934	0.645349	0.076544	0	0.646738	-0.0491304	-0.0700302	0.901294	0.593352	0.038887	0	-0.207782	0.00910576	-0.0632174	0.387247	-0.199153	0.118784	0.695012	1.97582	0.472743	-0.163973	0.108917	0.44657	2.09
0.67	-0.319966	0.0232812	-0.0364399	-1.06925	1.17856	-0.5757	0.646411	-0.0420004	0.0301557	0.89118	0.651493	0.0624837	0	0.662256	-0.0522828	-0.0703521	0.930907	0.594036	0.0269175	0	-0.212064	0.00874429	-0.0648903	0.431982	-0.199725	0.135156	0.706589	1.96964	0.523274	-0.164923	0.11725	0.465817	2.09
0.68	-0.324163	0.0230636	-0.0349835	-1.06643	1.17406	-0.575889	0.658882	-0.0424491	0.0319905	0.915196	0.656887	0.0462011	0	0.677852	-0.0558976	-0.0701405	0.959468	0.594096	0.0137468	0	-0.213924	0.00953516	-0.0674673	0.47764	-0.200206	0.150983	0.719003	1.96541	0.572392	-0.166574	0.122319	0.489167	2.09
0.69	-0.329084	0.0225897	-0.0338876	-1.06318	1.16958	-0.575972	0.670343	-0.0414536	0.0354308	0.937096	0.662113	0.0278784	0	0.693444	-0.0597199	-0.0680492	0.987715	0.592112	0.000567875	0	-0.213606	0.0105214	-0.0699341	0.524048	-0.200231	0.163483	0.730759	1.96509	0.620921	-0.169723	0.127672	0.515685	2.09
0.7	-0.332719	0.0219957	-0.03282	-1.05978	1.16528	-0.576039	0.679284	-0.0401651	0.0391345	0.957409	0.667843	0.00965527	0	0.707183	-0.063392	-0.0645183	1.01537	0.588327	-0.0125291	0	-0.213245	0.0102258	-0.0706433	0.571143	-0.200718	0.171003	0.741683	1.97139	0.672512	-0.173383	0.13827	0.541234	2.09
0.71	-0.335003	0.0211176	-0.0316689	-1.05623	1.16116	-0.576163	0.685512	-0.0385116	0.0426744	0.975727	0.673745	-0.00852644	0	0.718665	-0.0667645	-0.0608042	1.04155	0.584057	-0.0273216	0	-0.213142	0.00925157	-0.0698588	0.618794	-0.202315	0.174856	0.753028	1.98448	0.727282	-0.176691	0.152968	0.564417	2.09
0.72	-0.337537	0.019871	-0.0314014	-1.05231	1.15716	-0.576149	0.690211	-0.0347813	0.0478704	0.991544	0.679267	-0.0278036	0	0.729001	-0.070531	-0.0570668	1.06608	0.579684	-0.0434499	0	-0.211661	0.00888962	-0.0683211	0.666063	-0.204868	0.179972	0.767674	1.99925	0.782097	-0.180644	0.167811	0.587542	2.09
0.73	-0.341245	0.018504	-0.0324963	-1.04782	1.15334	-0.57582	0.694217	-0.0290552	0.0547212	1.00505	0.684836	-0.0465214	0	0.738525	-0.0754024	-0.0537063	1.08863	0.575125	-0.0580458	0	-0.207309	0.00884663	-0.0661076	0.711718	-0.208232	0.18867	0.786564	2.01153	0.835273	-0.186664	0.18365	0.611678	2.09
0.74	-0.346352	0.0175814	-0.0336053	-1.04262	1.14982	-0.575403	0.697705	-0.0241202	0.0606737	1.01632	0.690999	-0.0618232	0	0.746778	-0.0800029	-0.0514415	1.10769	0.570566	-0.0706504	0	-0.199277	0.00854075	-0.0644727	0.755402	-0.21227	0.199162	0.807694	2.02162	0.886286	-0.195014	0.202015	0.636261	2.09
0.75	-0.352687	0.01721	-0.0336777	-1.03669	1.14674	-0.575186	0.700119	-0.0208958	0.0651966	1.02471	0.697059	-0.0742066	0	0.7532	-0.0824343	-0.0495822	1.12201	0.566397	-0.0828833	0	-0.187757	0.00860928	-0.0646819	0.797359	-0.216612	0.210484	0.829967	2.02923	0.934243	-0.205136	0.220349	0.661241	2.09
0.76	-0.359178	0.0166862	-0.0336103	-1.03012	1.1442	-0.575114	0.700012	-0.0171058	0.0699549	1.02936	0.701749	-0.0864905	0	0.756466	-0.0833327	-0.0474033	1.13142	0.563777	-0.0937023	0	-0.174055	0.00943885	-0.0648582	0.837024	-0.2217	0.221652	0.854169	2.03304	0.979771	-0.21544	0.237628	0.685272	2.09
0.77	-0.364666	0.0155081	-0.0342765	-1.02295	1.14235	-0.575097	0.696187	-0.0118439	0.0748719	1.02994	0.704438	-0.0987922	0	0.754716	-0.0843521	-0.0462053	1.13534	0.564693	-0.099898	0	-0.15928	0.0103908	-0.0622626	0.872783	-0.229335	0.230502	0.881351	2.03475	1.02437	-0.223555	0.256332	0.705858	2.09
0.78	-0.369165	0.0139591	-0.0351443	-1.01499	1.14139	-0.575216	0.688481	-0.00682145	0.0782862	1.02631	0.70488	-0.108073	0	0.746832	-0.0856204	-0.0477462	1.13209	0.570692	-0.0987739	0	-0.143186	0.0113968	-0.0576264	0.903311	-0.240242	0.237541	0.912115	2.03672	1.06625	-0.229181	0.275626	0.723622	2.09
0.79	-0.372869	0.0126436	-0.0358162	-1.00596	1.14157	-0.57541	0.676466	-0.00295389	0.0800139	1.01794	0.702575	-0.112766	0	0.732107	-0.0864912	-0.0523142	1.12032	0.581491	-0.0885015	0	-0.125324	0.0127589	-0.0532702	0.928217	-0.25207	0.243811	0.945498	2.03909	1.1017	-0.234526	0.291273	0.741487	2.09
0.8	-0.374826	0.0123042	-0.0367203	-0.995769	1.14308	-0.575481	0.65886	-0.000197967	0.0810805	1.00423	0.696928	-0.113729	0	0.709437	-0.0860519	-0.0593106	1.09965	0.594296	-0.0703527	0	-0.106591	0.0134684	-0.0493423	0.947294	-0.262261	0.247157	0.979518	2.04132	1.13009	-0.240654	0.302664	0.759658	2.09
0.81	-0.374194	0.0134525	-0.0378515	-0.98454	1.14603	-0.575471	0.635375	0.000206997	0.0810937	0.985373	0.687256	-0.11025	0	0.678696	-0.0830492	-0.0679896	1.07037	0.604776	-0.0487431	0	-0.088125	0.0125598	-0.0451551	0.960289	-0.271406	0.247243	1.01361	2.04281	1.1527	-0.246681	0.31248	0.776463	2.09
0.82	-0.371075	0.0157494	-0.03895	-0.972388	1.1505	-0.575551	0.60721	-0.00269685	0.079032	0.962636	0.671747	-0.100767	0	0.641343	-0.077765	-0.0776681	1.03365	0.609514	-0.0248345	0	-0.0702994	0.0106195	-0.0408587	0.967329	-0.28149	0.24748	1.04825	2.04272	1.1695	-0.252499	0.322337	0.791766	2.09
0.83	-0.364966	0.0186507	-0.0406324	-0.959376	1.15656	-0.575598	0.574941	-0.00772567	0.0757883	0.937633	0.647342	-0.0869142	0	0.598008	-0.0718954	-0.0880756	0.991157	0.606975	0.00436592	0	-0.0541261	0.00787287	-0.0361508	0.968726	-0.292689	0.249122	1.08293	2.04067	1.18097	-0.259279	0.333323	0.805682	2.09
0.84	-0.355314	0.0221337	-0.0430927	-0.945553	1.16412	-0.575447	0.538993	-0.0140869	0.071912	0.911698	0.611694	-0.0715491	0	0.548995	-0.0652914	-0.0981034	0.944264	0.593857	0.0351803	0	-0.0403516	0.00369734	-0.0311081	0.964821	-0.303949	0.251542	1.11618	2.03461	1.18829	-0.267235	0.344552	0.817721	2.09
0.85	-0.341657	0.026167	-0.0453776	-0.930912	1.17311	-0.575221	0.499625	-0.0227297	0.0654239	0.885821	0.565123	-0.0546071	0	0.494659	-0.0571086	-0.106961	0.894122	0.567258	0.0618065	0	-0.0295819	-0.00179204	-0.0266281	0.956002	-0.31534	0.253689	1.14658	2.03763	1.19161	-0.274508	0.352655	0.827518	2.09
0.86	-0.323858	0.030027	-0.0470662	-0.915628	1.18346	-0.575067	0.457759	-0.0333262	0.0554133	0.8614	0.507628	-0.0375849	0	0.436266	-0.0489177	-0.11594	0.842717	0.527522	0.0854692	0	-0.0226068	-0.00764093	-0.0226761	0.943025	-0.328237	0.257136	1.17489	2.0427	1.19127	-0.279419	0.355864	0.834755	2.09
0.87	-0.303447	0.0330055	-0.0483497	-0.900133	1.19495	-0.574954	0.416624	-0.0440337	0.0434382	0.840255	0.437395	-0.0237478	0	0.377481	-0.0424708	-0.125258	0.792733	0.474581	0.108816	0	-0.0190227	-0.0128095	-0.019386	0.927371	-0.34222	0.262559	1.20086	2.05028	1.18777	-0.283488	0.35431	0.84073	2.09
0.88	-0.283826	0.0349893	-0.0488871	-0.88477	1.20729	-0.574847	0.381272	-0.053879	0.0302654	0.823768	0.353214	-0.0144255	0	0.324004	-0.0377616	-0.132222	0.746955	0.407179	0.131141	0	-0.0161774	-0.0158711	-0.0190111	0.911353	-0.354633	0.272016	1.22322	2.05936	1.17927	-0.290818	0.346479	0.849187	2.09
0.89	-0.266992	0.03621	-0.0483936	-0.869769	1.22012	-0.574779	0.355045	-0.0630348	0.0155981	0.813183	0.256192	-0.0114699	0	0.279857	-0.0342239	-0.135094	0.708179	0.326343	0.147961	0	-0.0124383	-0.0166733	-0.0221396	0.896005	-0.364988	0.285317	1.24153	2.06911	1.16562	-0.302158	0.332828	0.860608	2.09
0.9	-0.251321	0.0367377	-0.0477039	-0.85545	1.23309	-0.574693	0.3375	-0.0710745	0.00123989	0.810228	0.147752	-0.0192382	0	0.244834	-0.0323348	-0.136335	0.679012	0.236633	0.155667	0	-0.0102651	-0.0176745	-0.0240791	0.879068	-0.377627	0.296852	1.25844	2.0786	1.15309	-0.311826	0.320508	0.868642	2.09
0.91	-0.235787	0.0367194	-0.0473836	-0.842036	1.2459	-0.574475	0.328152	-0.0775821	-0.0103584	0.816385	0.0297377	-0.0381841	0	0.218905	-0.0327948	-0.138239	0.661491	0.140753	0.153954	0	-0.0117463	-0.0204401	-0.0218758	0.858655	-0.394476	0.30238	1.2765	2.08557	1.14596	-0.31629	0.313458	0.870499	2.09
0.92	-0.222264	0.036777	-0.0467549	-0.829479	1.25835	-0.574107	0.328478	-0.0834473	-0.0191642	0.831913	-0.0918695	-0.0648254	0	0.204857	-0.0351172	-0.139487	0.65706	0.0379304	0.142213	0	-0.015328	-0.0237609	-0.0193792	0.837202	-0.410356	0.303651	1.29349	2.08879	1.14045	-0.320109	0.306898	0.872083	2.09
0.93	-0.211518	0.0375805	-0.0454531	-0.817733	1.27018	-0.573618	0.338225	-0.0893909	-0.0255058	0.85549	-0.206572	-0.0983197	0	0.203925	-0.0380869	-0.138844	0.666666	-0.0711239	0.117473	0	-0.0199082	-0.0272563	-0.019445	0.817676	-0.421442	0.302354	1.30554	2.08976	1.13438	-0.327201	0.299135	0.876341	2.09
0.94	-0.202709	0.0391625	-0.0439187	-0.806804	1.28104	-0.572993	0.354761	-0.0944298	-0.0275908	0.88433	-0.298792	-0.133924	0	0.214389	-0.0411576	-0.136745	0.689418	-0.180231	0.0817547	0	-0.0258294	-0.0319548	-0.0202795	0.799943	-0.429761	0.298094	1.31206	2.08986	1.13059	-0.335824	0.293951	0.879609	2.09
0.95	-0.196419	0.0408783	-0.0419535	-0.796538	1.29068	-0.572319	0.376028	-0.0970582	-0.0236663	0.914689	-0.350055	-0.158887	0	0.234253	-0.0443268	-0.131889	0.72109	-0.273889	0.0479752	0	-0.0318787	-0.0371075	-0.0211231	0.783556	-0.437587	0.292567	1.31403	2.08857	1.12954	-0.344235	0.291482	0.880056	2.09
0.96	-0.193172	0.0422794	-0.0388932	-0.78667	1.2991	-0.5718	0.400151	-0.0974194	-0.0154463	0.94193	-0.359409	-0.169596	0	0.260475	-0.0469865	-0.122491	0.75527	-0.330739	0.0297414	0	-0.0370443	-0.0412491	-0.0228062	0.769123	-0.445299	0.28797	1.3118	2.08434	1.12939	-0.352371	0.289615	0.878717	2.09
0.97	-0.191296	0.0433002	-0.0349327	-0.777042	1.30645	-0.571455	0.424413	-0.0969816	-0.00763118	0.961581	-0.352855	-0.177015	0	0.288185	-0.0488122	-0.110641	0.785542	-0.345253	0.0257564	0	-0.0429962	-0.0443396	-0.0246261	0.757005	-0.453073	0.284049	1.30551	2.07923	1.13036	-0.359529	0.288599	0.875395	2.09
0.98	-0.190007	0.0437903	-0.030605	-0.767631	1.31281	-0.571156	0.447983	-0.0969655	-0.004001	0.971526	-0.354456	-0.187279	0	0.315078	-0.0504424	-0.10031	0.807217	-0.339734	0.0207061	0	-0.0503486	-0.0464979	-0.0259456	0.747539	-0.460639	0.281193	1.29536	2.07282	1.13281	-0.365508	0.288711	0.869544	2.09
0.99	-0.189784	0.0435057	-0.0259091	-0.75838	1.31816	-0.570902	0.470546	-0.0977184	-0.00498046	0.970878	-0.363349	-0.19422	0	0.341394	-0.0527804	-0.0936212	0.818655	-0.338224	0.00497533	0	-0.057933	-0.0472443	-0.0276969	0.7414	-0.467144	0.280686	1.28091	2.06516	1.13554	-0.371517	0.289596	0.862081	2.09
1	-0.191152	0.0428417	-0.0206753	-0.749213	1.32241	-0.570759	0.49173	-0.0994382	-0.00875238	0.959088	-0.367105	-0.191852	0	0.367805	-0.0556287	-0.0901908	0.820632	-0.344402	-0.0184908	0	-0.0644975	-0.0470013	-0.0302061	0.737924	-0.47237	0.281729	1.26256	2.05682	1.13774	-0.378066	0.291973	0.853817	2.09
1.01	-0.193311	0.0420854	-0.015289	-0.740165	1.32568	-0.570692	0.510802	-0.10183	-0.0137173	0.936389	-0.361196	-0.179453	0	0.393648	-0.0586636	-0.0885124	0.814081	-0.349337	-0.0385697	0	-0.0710151	-0.0463297	-0.0321878	0.735779	-0.477035	0.28207	1.24214	2.04943	1.14	-0.384099	0.2955	0.844525	2.09
1.02	-0.195078	0.041208	-0.0102416	-0.731329	1.32815	-0.570724	0.526796	-0.104719	-0.0197976	0.903418	-0.34945	-0.157127	0	0.417875	-0.061468	-0.0868966	0.799089	-0.348444	-0.0471576	0	-0.0793331	-0.0450129	-0.0328212	0.734786	-0.482009	0.281048	1.22161	2.04373	1.14264	-0.389039	0.29841	0.834875	2.09
